<svg xmlns="http://www.w3.org/2000/svg" viewBox="0 0 420 120" role="img" aria-label="Pretty Layana Braids"><rect width="420" height="120" fill="#fffaf8"/><circle cx="60" cy="60" r="43" fill="none" stroke="#df5b83" stroke-width="2"/><text x="60" y="69" text-anchor="middle" font-family="Georgia,serif" font-size="28" fill="#df5b83">PL</text><g fill="none" stroke="#231f20" stroke-width="4" stroke-linecap="round"><path d="M87 27c-13 5-19 17-17 29 2 13 12 20 8 36"/><path d="M92 31c-11 7-14 17-12 27 2 12 10 19 5 33"/><path d="M97 37c-8 7-10 15-8 24 2 9 7 15 3 26"/></g><g fill="#df5b83"><circle cx="79" cy="42" r="3"/><circle cx="84" cy="55" r="3"/><circle cx="79" cy="69" r="3"/></g><text x="125" y="57" font-family="Georgia,serif" font-weight="700" font-size="31" fill="#231f20">Pretty Layana</text><text x="128" y="82" font-family="Arial,sans-serif" font-weight="700" font-size="12" letter-spacing="7" fill="#df5b83">BRAIDS</text><path d="M126 91h165" stroke="#df5b83" stroke-width="1"/></svg>